<svg xmlns="http://www.w3.org/2000/svg" xmlns:xlink="http://www.w3.org/1999/xlink" width="1080" zoomAndPan="magnify" viewBox="0 0 810 809.999993" height="1080" preserveAspectRatio="xMidYMid meet" version="1.0"><defs><clipPath id="23000c5107"><path d="M 47.867188 331.722656 L 755 331.722656 L 755 810 L 47.867188 810 Z M 47.867188 331.722656 " clip-rule="nonzero"/></clipPath><clipPath id="7e1e35c161"><path d="M 289 23 L 809.433594 23 L 809.433594 619 L 289 619 Z M 289 23 " clip-rule="nonzero"/></clipPath><clipPath id="497f8f3f7f"><path d="M 22.074219 333.15625 L 668 333.15625 L 668 810 L 22.074219 810 Z M 22.074219 333.15625 " clip-rule="nonzero"/></clipPath><clipPath id="70cd0589b3"><path d="M 47.867188 337 L 729.894531 337 L 729.894531 810 L 47.867188 810 Z M 47.867188 337 " clip-rule="nonzero"/></clipPath><clipPath id="959f0b681c"><path d="M 0.582031 331.722656 L 708 331.722656 L 708 810 L 0.582031 810 Z M 0.582031 331.722656 " clip-rule="nonzero"/></clipPath></defs><g clip-path="url(#23000c5107)"><path fill="#bd6933" d="M 692.816406 331.996094 L 109.96875 331.996094 C 75.671875 331.996094 47.867188 359.796875 47.867188 394.097656 L 47.867188 837.011719 C 47.867188 871.308594 75.671875 899.113281 109.96875 899.113281 L 692.816406 899.113281 C 727.109375 899.113281 754.914062 871.308594 754.914062 837.011719 L 754.914062 394.097656 C 754.914062 359.796875 727.109375 331.996094 692.816406 331.996094 " fill-opacity="1" fill-rule="nonzero"/></g><path fill="#d6ddaf" d="M 2.292969 88.9375 L 145.902344 618.03125 L 390.3125 551.695312 L 246.707031 22.601562 L 2.292969 88.9375 " fill-opacity="1" fill-rule="nonzero"/><path fill="#79995b" d="M 106.484375 344.480469 C 117.390625 384.59375 178.082031 395.847656 217.242188 385.191406 C 256.410156 374.539062 296.898438 335.773438 286.035156 295.8125 C 275.078125 255.53125 220.578125 242.78125 181.410156 253.433594 C 142.242188 264.082031 95.570312 304.347656 106.484375 344.480469 " fill-opacity="1" fill-rule="nonzero"/><path fill="#d6ddaf" d="M 206.292969 285.816406 C 192.710938 289.511719 186.28125 298.15625 184.335938 315.867188 C 182.855469 328.683594 180.863281 334.285156 176.082031 335.585938 C 171.90625 336.726562 166.808594 335.070312 164.429688 326.320312 C 161.804688 316.667969 163.5 309.390625 164.375 305.550781 L 146.46875 306.273438 C 145.359375 311.636719 144.90625 318.820312 146.917969 327.402344 L 133.371094 331.089844 L 137.222656 345.25 L 151.824219 341.28125 C 158.648438 354.632812 171.089844 359.746094 184.398438 356.125 C 198.867188 352.191406 203.574219 340 205.019531 324.15625 C 206.027344 313.050781 208.410156 307.601562 214.070312 306.0625 C 219.878906 304.480469 224.707031 308.726562 226.832031 316.523438 C 229.207031 325.269531 228.234375 334.007812 226.347656 340.582031 L 244.988281 340.167969 C 246.714844 334.203125 247.128906 324.484375 245.273438 315.867188 L 259.875 311.894531 L 256.023438 297.730469 L 240.210938 302.03125 C 233.542969 288.636719 219.605469 282.195312 206.292969 285.816406 " fill-opacity="1" fill-rule="nonzero"/><path fill="#79995b" d="M 145.5625 133.441406 C 166.859375 127.648438 188.816406 140.222656 194.609375 161.519531 C 200.402344 182.808594 187.832031 204.773438 166.535156 210.566406 C 145.242188 216.351562 123.28125 203.785156 117.488281 182.488281 C 111.699219 161.191406 124.265625 139.230469 145.5625 133.441406 " fill-opacity="1" fill-rule="nonzero"/><path fill="#79995b" d="M 272.804688 458.652344 C 278.253906 478.691406 266.429688 499.347656 246.398438 504.792969 C 226.359375 510.246094 205.703125 498.417969 200.25 478.386719 C 194.804688 458.351562 206.625 437.691406 226.664062 432.238281 C 246.699219 426.792969 267.359375 438.613281 272.804688 458.652344 M 198 479.113281 C 203.792969 500.410156 225.75 512.980469 247.046875 507.191406 C 268.34375 501.402344 280.910156 479.441406 275.121094 458.144531 C 269.328125 436.847656 247.371094 424.28125 226.074219 430.066406 C 204.777344 435.859375 192.207031 457.816406 198 479.113281 " fill-opacity="1" fill-rule="nonzero"/><path fill="#79995b" d="M 204.785156 476.785156 C 209.535156 494.273438 227.5625 504.585938 245.042969 499.835938 C 262.527344 495.078125 272.84375 477.054688 268.089844 459.570312 C 263.339844 442.089844 245.3125 431.769531 227.828125 436.527344 C 210.347656 441.277344 200.027344 459.308594 204.785156 476.785156 " fill-opacity="1" fill-rule="nonzero"/><path fill="#79995b" d="M 148.386719 439.363281 L 168.785156 514.5 C 169.265625 516.285156 170.75 517.441406 172.617188 516.941406 C 174.488281 516.429688 175.175781 514.679688 174.695312 512.898438 L 154.296875 437.765625 C 153.816406 435.980469 152.332031 434.820312 150.464844 435.324219 C 148.59375 435.832031 147.90625 437.585938 148.386719 439.363281 " fill-opacity="1" fill-rule="nonzero"/><path fill="#79995b" d="M 176.121094 499.453125 L 179.417969 511.617188 C 179.90625 513.398438 181.976562 514.398438 183.84375 513.890625 C 185.714844 513.386719 186.992188 511.472656 186.507812 509.691406 L 183.210938 497.535156 C 182.726562 495.75 180.65625 494.746094 178.785156 495.257812 C 176.917969 495.761719 175.632812 497.675781 176.121094 499.453125 " fill-opacity="1" fill-rule="nonzero"/><path fill="#79995b" d="M 208.207031 133.242188 L 228.605469 208.375 C 229.085938 210.15625 230.570312 211.320312 232.4375 210.8125 C 234.308594 210.300781 234.996094 208.550781 234.515625 206.769531 L 214.121094 131.636719 C 213.636719 129.855469 212.15625 128.691406 210.285156 129.195312 C 208.417969 129.703125 207.726562 131.457031 208.207031 133.242188 " fill-opacity="1" fill-rule="nonzero"/><path fill="#79995b" d="M 232.277344 115.515625 C 235.527344 114.636719 238.78125 113.015625 240.726562 111.277344 L 340.503906 478.914062 C 337.953125 478.398438 334.335938 478.691406 331.085938 479.566406 C 315.59375 483.777344 306.957031 501.015625 311.609375 518.144531 C 312.582031 521.734375 314.210938 524.796875 316.140625 527.894531 L 199.671875 559.503906 C 199.773438 555.859375 199.472656 552.441406 198.5 548.84375 C 193.847656 531.714844 177.839844 521.160156 162.347656 525.363281 C 159.09375 526.246094 155.828125 527.832031 153.882812 529.566406 L 54.101562 161.933594 C 56.660156 162.445312 60.273438 162.15625 63.527344 161.273438 C 79.019531 157.066406 87.675781 139.902344 83.027344 122.773438 C 82.394531 120.441406 79.863281 112.515625 78.8125 110.390625 L 193.472656 79.269531 C 193.640625 81.636719 195.503906 89.742188 196.136719 92.074219 C 200.789062 109.203125 216.777344 119.726562 232.277344 115.515625 M 16.769531 99.988281 L 152.871094 601.4375 L 377.71875 540.40625 L 241.617188 38.964844 L 16.769531 99.988281 " fill-opacity="1" fill-rule="nonzero"/><path fill="#d6ddaf" d="M 51.855469 127.179688 C 51.324219 131.398438 50.648438 133.242188 49.0625 133.65625 C 47.679688 134.015625 46.007812 133.449219 45.257812 130.554688 C 44.421875 127.363281 45.011719 124.96875 45.308594 123.703125 L 39.390625 123.84375 C 39.003906 125.605469 38.9375 128.378906 39.457031 130.773438 L 35.3125 131.855469 L 36.546875 136.59375 L 41.039062 135.425781 C 43.257812 139.90625 47.328125 141.59375 51.734375 140.445312 C 56.519531 139.195312 58.113281 135.199219 58.644531 129.980469 C 59.019531 126.316406 59.820312 124.539062 61.695312 124.046875 C 63.617188 123.546875 65.195312 124.964844 65.867188 127.542969 C 66.621094 130.4375 66.269531 133.316406 65.625 135.476562 L 71.769531 135.402344 C 72.363281 133.4375 72.414062 129.789062 71.949219 127.382812 L 76.835938 126.105469 L 75.605469 121.363281 L 70.308594 122.742188 C 68.144531 118.246094 63.59375 116.164062 59.195312 117.3125 C 54.699219 118.480469 52.5625 121.347656 51.855469 127.179688 " fill-opacity="1" fill-rule="nonzero"/><path fill="#d6ddaf" d="M 166.21875 551.628906 C 165.683594 555.855469 165.003906 557.695312 163.425781 558.105469 C 162.042969 558.464844 160.371094 557.902344 159.617188 555.011719 C 158.78125 551.816406 159.371094 549.425781 159.671875 548.160156 L 153.75 548.292969 C 153.371094 550.0625 153.296875 552.832031 153.816406 555.230469 L 149.675781 556.308594 L 150.90625 561.042969 L 155.402344 559.875 C 157.617188 564.363281 161.691406 566.046875 166.089844 564.898438 C 170.875 563.652344 172.476562 559.648438 173.007812 554.433594 C 173.378906 550.773438 174.183594 548.988281 176.054688 548.5 C 177.980469 547.996094 179.558594 549.417969 180.230469 552 C 180.980469 554.894531 180.625 557.769531 179.984375 559.929688 L 186.128906 559.851562 C 186.722656 557.886719 186.773438 554.238281 186.308594 551.832031 L 191.195312 550.5625 L 189.960938 545.820312 L 184.671875 547.195312 C 182.507812 542.695312 177.957031 540.613281 173.550781 541.761719 C 169.0625 542.933594 166.917969 545.796875 166.21875 551.628906 " fill-opacity="1" fill-rule="nonzero"/><path fill="#d6ddaf" d="M 332.597656 508.347656 C 332.058594 512.566406 331.382812 514.410156 329.804688 514.816406 C 328.421875 515.183594 326.75 514.617188 325.992188 511.722656 C 325.164062 508.53125 325.746094 506.136719 326.046875 504.871094 L 320.132812 505.011719 C 319.746094 506.773438 319.679688 509.546875 320.195312 511.941406 L 316.050781 513.023438 L 317.285156 517.761719 L 321.777344 516.59375 C 323.996094 521.074219 328.070312 522.761719 332.472656 521.613281 C 337.253906 520.363281 338.855469 516.367188 339.386719 511.148438 C 339.753906 507.492188 340.5625 505.699219 342.4375 505.21875 C 344.355469 504.714844 345.933594 506.132812 346.605469 508.710938 C 347.355469 511.605469 347.007812 514.480469 346.359375 516.644531 L 352.503906 516.570312 C 353.097656 514.605469 353.15625 510.957031 352.683594 508.542969 L 357.578125 507.273438 L 356.339844 502.53125 L 351.050781 503.910156 C 348.882812 499.414062 344.332031 497.332031 339.933594 498.480469 C 335.441406 499.648438 333.296875 502.515625 332.597656 508.347656 " fill-opacity="1" fill-rule="nonzero"/><path fill="#d6ddaf" d="M 218.3125 83.859375 C 217.773438 88.085938 217.097656 89.921875 215.519531 90.335938 C 214.136719 90.691406 212.460938 90.128906 211.707031 87.238281 C 210.878906 84.042969 211.460938 81.652344 211.761719 80.390625 L 205.847656 80.523438 C 205.460938 82.285156 205.394531 85.0625 205.910156 87.457031 L 201.765625 88.53125 L 203 93.273438 L 207.492188 92.105469 C 209.707031 96.585938 213.785156 98.273438 218.183594 97.125 C 222.96875 95.882812 224.570312 91.878906 225.101562 86.65625 C 225.46875 83.003906 226.277344 81.21875 228.152344 80.730469 C 230.070312 80.226562 231.648438 81.648438 232.320312 84.222656 C 233.078125 87.117188 232.722656 90 232.074219 92.160156 L 238.226562 92.082031 C 238.8125 90.117188 238.871094 86.46875 238.398438 84.0625 L 243.292969 82.789062 L 242.054688 78.050781 L 236.765625 79.425781 C 234.597656 74.925781 230.046875 72.84375 225.648438 73.992188 C 221.15625 75.160156 219.011719 78.027344 218.3125 83.859375 " fill-opacity="1" fill-rule="nonzero"/><g clip-path="url(#7e1e35c161)"><path fill="#d6ddaf" d="M 600.917969 23.472656 L 289.773438 474.871094 L 498.296875 618.605469 L 809.433594 167.203125 L 600.917969 23.472656 " fill-opacity="1" fill-rule="nonzero"/></g><path fill="#79995b" d="M 473.136719 268.074219 C 449.5625 302.316406 480.179688 355.914062 513.609375 378.929688 C 547.039062 401.949219 602.789062 407.820312 626.273438 373.707031 C 649.949219 339.324219 624.476562 289.480469 591.042969 266.46875 C 557.613281 243.445312 496.722656 233.824219 473.136719 268.074219 " fill-opacity="1" fill-rule="nonzero"/><path fill="#d6ddaf" d="M 582.398438 306.378906 C 570.800781 298.394531 560.042969 299.074219 545.273438 309.03125 C 534.527344 316.175781 528.96875 318.273438 524.886719 315.46875 C 521.316406 313.011719 519.289062 308.054688 524.433594 300.585938 C 530.105469 292.347656 536.753906 288.941406 540.25 287.125 L 528.132812 273.921875 C 523.328125 276.535156 517.542969 280.839844 512.292969 287.914062 L 500.730469 279.949219 L 492.410156 292.039062 L 504.875 300.625 C 499.085938 314.457031 503.214844 327.261719 514.578125 335.082031 C 526.925781 343.582031 539.277344 339.300781 552.308594 330.171875 C 561.4375 323.765625 567.128906 322.066406 571.957031 325.394531 C 576.921875 328.808594 576.800781 335.230469 572.222656 341.894531 C 567.078125 349.355469 559.78125 354.257812 553.542969 357.0625 L 565.902344 371.03125 C 571.574219 368.488281 579.25 362.527344 584.628906 355.542969 L 597.101562 364.125 L 605.421875 352.039062 L 591.921875 342.742188 C 597.84375 328.996094 593.757812 314.199219 582.398438 306.378906 " fill-opacity="1" fill-rule="nonzero"/><path fill="#79995b" d="M 659.484375 161.589844 C 677.664062 174.105469 682.253906 198.988281 669.738281 217.167969 C 657.21875 235.34375 632.339844 239.933594 614.160156 227.417969 C 595.980469 214.902344 591.398438 190.019531 603.914062 171.84375 C 616.425781 153.664062 641.3125 149.074219 659.484375 161.589844 " fill-opacity="1" fill-rule="nonzero"/><path fill="#79995b" d="M 493.421875 468.800781 C 481.644531 485.898438 458.234375 490.214844 441.132812 478.441406 C 424.03125 466.667969 419.714844 443.253906 431.492188 426.15625 C 443.261719 409.058594 466.671875 404.734375 483.773438 416.511719 C 500.875 428.289062 505.199219 451.695312 493.421875 468.800781 M 429.476562 424.90625 C 416.960938 443.085938 421.550781 467.972656 439.722656 480.484375 C 457.902344 493 482.789062 488.410156 495.300781 470.230469 C 507.816406 452.054688 503.226562 427.175781 485.046875 414.660156 C 466.875 402.144531 441.992188 406.734375 429.476562 424.90625 " fill-opacity="1" fill-rule="nonzero"/><path fill="#79995b" d="M 435.636719 428.585938 C 425.363281 443.507812 429.128906 463.929688 444.050781 474.207031 C 458.972656 484.476562 479.402344 480.710938 489.671875 465.789062 C 499.949219 450.867188 496.179688 430.441406 481.257812 420.167969 C 466.335938 409.898438 445.910156 413.664062 435.636719 428.585938 " fill-opacity="1" fill-rule="nonzero"/><path fill="#79995b" d="M 427.773438 361.363281 L 383.589844 425.460938 C 382.542969 426.984375 382.613281 428.863281 384.207031 429.960938 C 385.800781 431.066406 387.585938 430.460938 388.632812 428.9375 L 432.816406 364.835938 C 433.863281 363.316406 433.796875 361.4375 432.203125 360.335938 C 430.605469 359.238281 428.828125 359.84375 427.773438 361.363281 " fill-opacity="1" fill-rule="nonzero"/><path fill="#79995b" d="M 399.816406 421.34375 L 392.664062 431.71875 C 391.617188 433.234375 392.1875 435.464844 393.789062 436.566406 C 395.378906 437.664062 397.667969 437.40625 398.714844 435.890625 L 405.863281 425.519531 C 406.914062 423.996094 406.335938 421.769531 404.742188 420.664062 C 403.152344 419.566406 400.863281 419.824219 399.816406 421.34375 " fill-opacity="1" fill-rule="nonzero"/><path fill="#79995b" d="M 700.109375 209.289062 L 655.925781 273.386719 C 654.878906 274.90625 654.945312 276.789062 656.539062 277.886719 C 658.136719 278.988281 659.914062 278.382812 660.960938 276.859375 L 705.152344 212.757812 C 706.199219 211.242188 706.128906 209.359375 704.535156 208.257812 C 702.941406 207.160156 701.15625 207.765625 700.109375 209.289062 " fill-opacity="1" fill-rule="nonzero"/><path fill="#79995b" d="M 729.179688 216.207031 C 731.957031 218.121094 735.296875 219.558594 737.875 219.921875 L 521.6875 533.5625 C 520.425781 531.285156 517.871094 528.710938 515.097656 526.796875 C 501.878906 517.683594 483.140625 522.230469 473.066406 536.84375 C 470.949219 539.910156 469.667969 543.132812 468.554688 546.605469 L 369.191406 478.117188 C 372.039062 475.835938 374.453125 473.394531 376.566406 470.328125 C 386.640625 455.714844 384.363281 436.679688 371.136719 427.566406 C 368.367188 425.652344 365.046875 424.179688 362.46875 423.820312 L 578.660156 110.175781 C 579.914062 112.460938 582.476562 115.027344 585.246094 116.941406 C 598.464844 126.054688 617.160156 121.578125 627.234375 106.964844 C 628.605469 104.972656 633.023438 97.925781 633.96875 95.746094 L 731.789062 163.167969 C 730.085938 164.832031 725.105469 171.484375 723.734375 173.480469 C 713.660156 188.09375 715.957031 207.09375 729.179688 216.207031 M 601.832031 41.667969 L 306.953125 469.472656 L 498.777344 601.695312 L 793.65625 173.886719 L 601.832031 41.667969 " fill-opacity="1" fill-rule="nonzero"/><path fill="#d6ddaf" d="M 603.738281 86.015625 C 600.167969 88.332031 598.328125 89.003906 596.996094 88.0625 C 595.824219 87.238281 595.175781 85.601562 596.894531 83.152344 C 598.796875 80.457031 601 79.359375 602.160156 78.773438 L 598.230469 74.34375 C 596.636719 75.191406 594.476562 76.925781 592.980469 78.867188 L 589.484375 76.402344 L 586.664062 80.40625 L 590.457031 83.082031 C 588.464844 87.671875 589.808594 91.867188 593.53125 94.488281 C 597.570312 97.335938 601.65625 95.972656 605.984375 93.003906 C 609.015625 90.929688 610.902344 90.386719 612.480469 91.5 C 614.105469 92.648438 614.042969 94.761719 612.507812 96.945312 C 610.785156 99.386719 608.363281 100.980469 606.296875 101.882812 L 610.328125 106.527344 C 612.207031 105.710938 615.023438 103.394531 616.5625 101.480469 L 620.691406 104.390625 L 623.511719 100.386719 L 619.046875 97.234375 C 621.078125 92.675781 619.730469 87.859375 616.007812 85.242188 C 612.210938 82.566406 608.648438 82.785156 603.738281 86.015625 " fill-opacity="1" fill-rule="nonzero"/><path fill="#d6ddaf" d="M 353.585938 447.492188 C 350.019531 449.808594 348.179688 450.480469 346.839844 449.539062 C 345.675781 448.71875 345.027344 447.078125 346.746094 444.632812 C 348.648438 441.933594 350.855469 440.832031 352.011719 440.25 L 348.082031 435.816406 C 346.488281 436.667969 344.328125 438.402344 342.832031 440.34375 L 339.335938 437.882812 L 336.515625 441.882812 L 340.308594 444.558594 C 338.316406 449.148438 339.660156 453.347656 343.382812 455.964844 C 347.421875 458.808594 351.507812 457.449219 355.835938 454.480469 C 358.871094 452.398438 360.75 451.863281 362.332031 452.976562 C 363.957031 454.125 363.894531 456.238281 362.363281 458.417969 C 360.636719 460.863281 358.214844 462.453125 356.148438 463.359375 L 360.179688 468 C 362.058594 467.183594 364.875 464.863281 366.414062 462.957031 L 370.542969 465.867188 L 373.367188 461.859375 L 368.898438 458.714844 C 370.929688 454.152344 369.582031 449.339844 365.859375 446.714844 C 362.066406 444.039062 358.496094 444.257812 353.585938 447.492188 " fill-opacity="1" fill-rule="nonzero"/><path fill="#d6ddaf" d="M 494.105469 546.535156 C 490.535156 548.859375 488.691406 549.53125 487.359375 548.589844 C 486.191406 547.769531 485.539062 546.121094 487.257812 543.683594 C 489.164062 540.984375 491.367188 539.882812 492.527344 539.300781 L 488.601562 534.867188 C 487 535.710938 484.839844 537.453125 483.347656 539.394531 L 479.847656 536.925781 L 477.027344 540.933594 L 480.824219 543.609375 C 478.832031 548.191406 480.179688 552.390625 483.894531 555.015625 C 487.9375 557.859375 492.023438 556.492188 496.355469 553.53125 C 499.382812 551.449219 501.269531 550.914062 502.847656 552.027344 C 504.476562 553.167969 504.410156 555.289062 502.875 557.46875 C 501.152344 559.914062 498.726562 561.503906 496.664062 562.410156 L 500.691406 567.050781 C 502.574219 566.230469 505.394531 563.914062 506.925781 562 L 511.058594 564.910156 L 513.878906 560.910156 L 509.414062 557.765625 C 511.445312 553.203125 510.09375 548.382812 506.378906 545.765625 C 502.578125 543.089844 499.007812 543.308594 494.105469 546.535156 " fill-opacity="1" fill-rule="nonzero"/><path fill="#d6ddaf" d="M 744.324219 185.097656 C 740.757812 187.414062 738.917969 188.09375 737.582031 187.152344 C 736.414062 186.328125 735.761719 184.683594 737.484375 182.242188 C 739.382812 179.546875 741.585938 178.441406 742.746094 177.855469 L 738.824219 173.429688 C 737.226562 174.273438 735.066406 176.015625 733.574219 177.957031 L 730.070312 175.488281 L 727.25 179.496094 L 731.046875 182.164062 C 729.054688 186.753906 730.398438 190.953125 734.121094 193.570312 C 738.164062 196.421875 742.25 195.054688 746.574219 192.09375 C 749.609375 190.011719 751.488281 189.476562 753.074219 190.589844 C 754.695312 191.730469 754.632812 193.851562 753.101562 196.027344 C 751.375 198.476562 748.953125 200.066406 746.882812 200.964844 L 750.917969 205.609375 C 752.792969 204.792969 755.613281 202.476562 757.152344 200.5625 L 761.277344 203.472656 L 764.105469 199.472656 L 759.636719 196.324219 C 761.667969 191.765625 760.320312 186.945312 756.597656 184.324219 C 752.804688 181.648438 749.234375 181.867188 744.324219 185.097656 " fill-opacity="1" fill-rule="nonzero"/><path fill="#d6ddaf" d="M 284.09375 -60.867188 L 196.019531 480.257812 L 445.988281 520.941406 L 534.0625 -20.183594 L 284.09375 -60.867188 " fill-opacity="1" fill-rule="nonzero"/><path fill="#79995b" d="M 273.269531 214.886719 C 266.609375 255.921875 317.210938 291.261719 357.273438 297.765625 C 397.335938 304.265625 450.242188 285.714844 456.875 244.835938 C 463.554688 203.628906 419.207031 169.480469 379.140625 162.984375 C 339.078125 156.480469 279.929688 173.835938 273.269531 214.886719 " fill-opacity="1" fill-rule="nonzero"/><path fill="#d6ddaf" d="M 388.40625 202.757812 C 374.507812 200.5 365.078125 205.71875 355.980469 221.042969 C 349.332031 232.097656 345.203125 236.371094 340.316406 235.578125 C 336.039062 234.882812 332.085938 231.269531 333.539062 222.324219 C 335.136719 212.449219 339.695312 206.523438 342.078125 203.390625 L 325.472656 196.640625 C 322.25 201.0625 318.863281 207.417969 317.144531 216.066406 L 303.285156 213.816406 L 300.933594 228.300781 L 315.875 230.726562 C 316.5625 245.707031 325.773438 255.507812 339.390625 257.71875 C 354.183594 260.121094 363.519531 250.964844 371.390625 237.132812 C 376.898438 227.441406 381.320312 223.464844 387.113281 224.40625 C 393.054688 225.367188 395.699219 231.230469 394.40625 239.210938 C 392.949219 248.152344 388.449219 255.703125 384.011719 260.910156 L 401.15625 268.246094 C 405.195312 263.523438 409.589844 254.855469 411.464844 246.234375 L 426.402344 248.65625 L 428.753906 234.171875 L 412.578125 231.546875 C 412.046875 216.59375 402.023438 204.960938 388.40625 202.757812 " fill-opacity="1" fill-rule="nonzero"/><path fill="#79995b" d="M 396.128906 38.910156 C 417.914062 42.441406 432.707031 62.964844 429.171875 84.75 C 425.636719 106.539062 405.113281 121.332031 383.328125 117.792969 C 361.542969 114.261719 346.75 93.738281 350.285156 71.953125 C 353.816406 50.164062 374.34375 35.371094 396.128906 38.910156 " fill-opacity="1" fill-rule="nonzero"/><path fill="#79995b" d="M 377.480469 387.625 C 374.15625 408.121094 354.84375 422.042969 334.347656 418.71875 C 313.851562 415.394531 299.9375 396.082031 303.261719 375.585938 C 306.585938 355.089844 325.898438 341.171875 346.394531 344.496094 C 366.890625 347.820312 380.804688 367.136719 377.480469 387.625 M 300.90625 375.316406 C 297.375 397.105469 312.167969 417.632812 333.953125 421.164062 C 355.734375 424.699219 376.265625 409.902344 379.796875 388.117188 C 383.332031 366.335938 368.535156 345.8125 346.75 342.273438 C 324.96875 338.742188 304.445312 353.535156 300.90625 375.316406 " fill-opacity="1" fill-rule="nonzero"/><path fill="#79995b" d="M 308.046875 376.007812 C 305.144531 393.890625 317.289062 410.734375 335.171875 413.640625 C 353.054688 416.539062 369.90625 404.394531 372.804688 386.511719 C 375.710938 368.628906 363.566406 351.78125 345.683594 348.878906 C 327.792969 345.980469 310.949219 358.125 308.046875 376.007812 " fill-opacity="1" fill-rule="nonzero"/><path fill="#79995b" d="M 272.183594 318.613281 L 259.671875 395.457031 C 259.375 397.273438 260.246094 398.949219 262.160156 399.257812 C 264.066406 399.570312 265.421875 398.261719 265.71875 396.4375 L 278.222656 319.59375 C 278.519531 317.773438 277.652344 316.101562 275.742188 315.792969 C 273.828125 315.480469 272.480469 316.789062 272.183594 318.613281 " fill-opacity="1" fill-rule="nonzero"/><path fill="#79995b" d="M 272.574219 384.789062 L 270.546875 397.226562 C 270.257812 399.050781 271.722656 400.816406 273.636719 401.125 C 275.546875 401.441406 277.503906 400.226562 277.800781 398.40625 L 279.828125 385.96875 C 280.125 384.148438 278.652344 382.382812 276.738281 382.066406 C 274.832031 381.761719 272.871094 382.96875 272.574219 384.789062 " fill-opacity="1" fill-rule="nonzero"/><path fill="#79995b" d="M 453.25 64.632812 L 440.742188 141.476562 C 440.445312 143.292969 441.3125 144.96875 443.226562 145.28125 C 445.136719 145.589844 446.492188 144.277344 446.789062 142.460938 L 459.296875 65.613281 C 459.59375 63.792969 458.726562 62.125 456.8125 61.8125 C 454.902344 61.5 453.546875 62.808594 453.25 64.632812 " fill-opacity="1" fill-rule="nonzero"/><path fill="#79995b" d="M 482.492188 58.449219 C 485.816406 58.992188 489.449219 58.863281 491.9375 58.085938 L 430.742188 434.070312 C 428.628906 432.546875 425.214844 431.316406 421.890625 430.773438 C 406.046875 428.199219 391.050781 440.320312 388.203125 457.839844 C 387.605469 461.519531 387.824219 464.976562 388.296875 468.59375 L 269.183594 449.203125 C 270.785156 445.925781 271.925781 442.691406 272.519531 439.011719 C 275.375 421.492188 265.167969 405.261719 249.320312 402.683594 C 245.996094 402.140625 242.367188 402.234375 239.882812 403.007812 L 301.074219 27.023438 C 303.183594 28.542969 306.597656 29.773438 309.921875 30.316406 C 325.773438 32.898438 340.75 20.847656 343.601562 3.328125 C 343.992188 0.945312 344.964844 -7.316406 344.886719 -9.6875 L 462.152344 9.398438 C 461.324219 11.625 459.671875 19.773438 459.285156 22.15625 C 456.429688 39.675781 466.640625 55.867188 482.492188 58.449219 M 292.703125 -44.808594 L 209.234375 468.027344 L 439.1875 505.453125 L 522.65625 -7.390625 L 292.703125 -44.808594 " fill-opacity="1" fill-rule="nonzero"/><path fill="#d6ddaf" d="M 313.398438 -5.546875 C 311.171875 -1.925781 309.792969 -0.53125 308.183594 -0.808594 C 306.777344 -1.054688 305.484375 -2.261719 305.996094 -5.207031 C 306.558594 -8.453125 308.082031 -10.394531 308.875 -11.417969 L 303.429688 -13.742188 C 302.351562 -12.292969 301.140625 -9.800781 300.621094 -7.40625 L 296.40625 -8.132812 L 295.566406 -3.308594 L 300.144531 -2.515625 C 300.308594 2.484375 303.320312 5.703125 307.800781 6.480469 C 312.671875 7.320312 315.785156 4.34375 318.425781 -0.191406 C 320.277344 -3.371094 321.75 -4.664062 323.652344 -4.328125 C 325.613281 -3.992188 326.460938 -2.050781 326.003906 0.574219 C 325.496094 3.523438 323.988281 6 322.503906 7.699219 L 328.128906 10.175781 C 329.484375 8.628906 331.039062 5.328125 331.613281 2.941406 L 336.585938 3.804688 L 337.425781 -1.019531 L 332.039062 -1.953125 C 331.925781 -6.945312 328.644531 -10.726562 324.164062 -11.496094 C 319.589844 -12.292969 316.457031 -10.566406 313.398438 -5.546875 " fill-opacity="1" fill-rule="nonzero"/><path fill="#d6ddaf" d="M 241.980469 428.199219 C 239.75 431.820312 238.371094 433.21875 236.765625 432.941406 C 235.355469 432.699219 234.0625 431.488281 234.570312 428.546875 C 235.136719 425.292969 236.660156 423.355469 237.453125 422.332031 L 232.011719 420.003906 C 230.933594 421.453125 229.722656 423.949219 229.203125 426.347656 L 224.984375 425.613281 L 224.148438 430.4375 L 228.722656 431.230469 C 228.890625 436.230469 231.902344 439.449219 236.378906 440.226562 C 241.253906 441.070312 244.359375 438.089844 247.007812 433.554688 C 248.855469 430.382812 250.328125 429.089844 252.234375 429.417969 C 254.1875 429.761719 255.039062 431.703125 254.585938 434.328125 C 254.078125 437.273438 252.566406 439.746094 251.082031 441.445312 L 256.710938 443.921875 C 258.0625 442.375 259.617188 439.078125 260.1875 436.691406 L 265.167969 437.550781 L 266.003906 432.726562 L 260.621094 431.792969 C 260.507812 426.804688 257.226562 423.027344 252.746094 422.25 C 248.167969 421.460938 245.03125 423.179688 241.980469 428.199219 " fill-opacity="1" fill-rule="nonzero"/><path fill="#d6ddaf" d="M 411.363281 457.601562 C 409.128906 461.222656 407.753906 462.621094 406.148438 462.339844 C 404.738281 462.09375 403.445312 460.890625 403.957031 457.945312 C 404.519531 454.695312 406.039062 452.753906 406.839844 451.730469 L 401.394531 449.40625 C 400.316406 450.855469 399.105469 453.347656 398.585938 455.742188 L 394.367188 455.015625 L 393.53125 459.839844 L 398.105469 460.632812 C 398.273438 465.632812 401.285156 468.851562 405.761719 469.628906 C 410.636719 470.472656 413.742188 467.488281 416.390625 462.957031 C 418.238281 459.777344 419.707031 458.488281 421.617188 458.820312 C 423.578125 459.15625 424.421875 461.105469 423.96875 463.730469 C 423.457031 466.671875 421.949219 469.148438 420.46875 470.847656 L 426.09375 473.320312 C 427.445312 471.777344 429.003906 468.476562 429.570312 466.089844 L 434.550781 466.953125 L 435.390625 462.128906 L 430 461.191406 C 429.890625 456.207031 426.609375 452.421875 422.125 451.648438 C 417.554688 450.855469 414.414062 452.578125 411.363281 457.601562 " fill-opacity="1" fill-rule="nonzero"/><path fill="#d6ddaf" d="M 482.867188 23.855469 C 480.632812 27.476562 479.253906 28.867188 477.648438 28.59375 C 476.238281 28.347656 474.953125 27.140625 475.460938 24.195312 C 476.027344 20.941406 477.546875 19.007812 478.34375 17.980469 L 472.898438 15.660156 C 471.824219 17.109375 470.609375 19.601562 470.09375 21.996094 L 465.875 21.261719 L 465.035156 26.09375 L 469.613281 26.882812 C 469.773438 31.886719 472.785156 35.105469 477.269531 35.875 C 482.136719 36.722656 485.25 33.742188 487.890625 29.210938 C 489.746094 26.03125 491.214844 24.738281 493.121094 25.066406 C 495.078125 25.410156 495.929688 27.351562 495.476562 29.976562 C 494.960938 32.925781 493.449219 35.398438 491.972656 37.101562 L 497.601562 39.570312 C 498.945312 38.03125 500.507812 34.730469 501.078125 32.34375 L 506.054688 33.207031 L 506.894531 28.382812 L 501.503906 27.445312 C 501.390625 22.453125 498.113281 18.675781 493.628906 17.898438 C 489.054688 17.109375 485.921875 18.832031 482.867188 23.855469 " fill-opacity="1" fill-rule="nonzero"/><path fill="#efb21b" d="M 465.125 287.371094 C 478.050781 323.835938 458.964844 363.882812 422.5 376.816406 C 386.03125 389.746094 345.980469 370.660156 333.050781 334.195312 C 320.121094 297.726562 339.203125 257.679688 375.671875 244.75 C 412.140625 231.816406 452.1875 250.902344 465.125 287.371094 " fill-opacity="1" fill-rule="nonzero"/><path fill="#ffd83b" d="M 402.878906 300.890625 C 392.195312 301.402344 387.527344 300.742188 386.457031 297.730469 C 385.523438 295.101562 386.925781 291.535156 394.226562 288.945312 C 402.285156 286.085938 408.347656 286.359375 411.546875 286.488281 L 411.003906 274.730469 C 406.539062 274.621094 400.542969 275.160156 393.378906 277.492188 L 390.351562 268.964844 L 378.527344 273.160156 L 381.789062 282.355469 C 370.632812 288.425781 366.332031 297.246094 369.300781 305.625 C 372.539062 314.734375 382.691406 316.425781 395.90625 315.53125 C 405.164062 314.902344 409.695312 315.84375 410.960938 319.402344 C 412.257812 323.066406 408.707031 326.753906 402.195312 329.066406 C 394.890625 331.65625 387.609375 332.03125 382.128906 331.554688 L 382.414062 343.828125 C 387.386719 344.277344 395.484375 343.414062 402.683594 341.183594 L 405.945312 350.378906 L 417.773438 346.179688 L 414.234375 336.222656 C 425.429688 330.25 430.847656 320.28125 427.875 311.902344 C 424.835938 303.351562 417.636719 300.105469 402.878906 300.890625 " fill-opacity="1" fill-rule="nonzero"/><path fill="#ffd83b" d="M 418.503906 365.558594 C 388.25 376.285156 355.023438 360.453125 344.300781 330.195312 C 333.570312 299.9375 349.398438 266.714844 379.65625 255.988281 C 409.914062 245.261719 443.136719 261.089844 453.867188 291.347656 C 464.597656 321.605469 448.761719 354.828125 418.503906 365.558594 M 377.996094 251.300781 C 345.152344 262.941406 327.960938 299.015625 339.609375 331.855469 C 351.25 364.707031 387.320312 381.890625 420.167969 370.246094 C 453.015625 358.601562 470.199219 322.53125 458.558594 289.683594 C 446.910156 256.839844 410.84375 239.652344 377.996094 251.300781 " fill-opacity="1" fill-rule="nonzero"/><path fill="#ffd83b" d="M 422.382812 375.703125 C 386.367188 388.472656 346.824219 369.625 334.058594 333.613281 C 321.285156 297.605469 340.128906 258.054688 376.148438 245.289062 C 412.160156 232.523438 451.707031 251.359375 464.472656 287.378906 C 477.242188 323.390625 458.394531 362.9375 422.382812 375.703125 M 374.164062 239.707031 C 335.070312 253.566406 314.613281 296.496094 328.476562 335.589844 C 342.335938 374.691406 385.265625 395.148438 424.359375 381.285156 C 463.460938 367.421875 483.914062 324.492188 470.054688 285.398438 C 456.191406 246.300781 413.261719 225.84375 374.164062 239.707031 " fill-opacity="1" fill-rule="nonzero"/><g clip-path="url(#497f8f3f7f)"><path fill="#b88f73" d="M 667.023438 899.113281 L 84.179688 899.113281 C 49.878906 899.113281 22.074219 871.308594 22.074219 837.011719 L 22.074219 394.097656 C 22.074219 365.109375 41.933594 340.761719 68.789062 333.917969 L 71.820312 345.089844 C 57.242188 356.457031 47.867188 374.183594 47.867188 394.097656 L 47.867188 837.011719 C 47.867188 871.308594 75.671875 899.113281 109.96875 899.113281 L 667.023438 899.113281 " fill-opacity="1" fill-rule="nonzero"/></g><g clip-path="url(#70cd0589b3)"><path fill="#a25e30" d="M 667.023438 899.113281 L 109.96875 899.113281 C 75.671875 899.113281 47.867188 871.308594 47.867188 837.011719 L 47.867188 394.097656 C 47.867188 374.183594 57.242188 356.457031 71.820312 345.089844 L 145.902344 618.03125 L 390.3125 551.695312 L 387.800781 542.441406 L 498.296875 618.605469 L 692.1875 337.304688 C 713.949219 346.964844 729.125 368.757812 729.125 394.097656 L 729.125 837.011719 C 729.125 871.308594 701.316406 899.113281 667.023438 899.113281 " fill-opacity="1" fill-rule="nonzero"/></g><path fill="#aa8458" d="M 145.902344 618.03125 L 71.820312 345.089844 L 68.789062 333.917969 C 72.339844 333.011719 76.011719 332.410156 79.785156 332.148438 L 152.871094 601.4375 L 377.71875 540.40625 L 376.074219 534.355469 L 387.800781 542.441406 L 390.3125 551.695312 L 145.902344 618.03125 M 199.671875 559.503906 C 199.773438 555.859375 199.472656 552.441406 198.5 548.84375 C 194.535156 534.261719 182.34375 524.441406 169.25 524.441406 C 166.957031 524.441406 164.648438 524.742188 162.347656 525.363281 C 159.09375 526.246094 155.828125 527.832031 153.882812 529.566406 L 100.257812 331.996094 L 104.871094 331.996094 C 104.835938 336.132812 105.347656 340.304688 106.484375 344.480469 C 114.832031 375.191406 152.363281 388.984375 187.070312 388.984375 C 195.449219 388.984375 203.660156 388.179688 211.257812 386.617188 L 200.828125 450.742188 C 197.273438 457.839844 195.804688 466.011719 196.992188 474.273438 L 196.019531 480.257812 L 198.449219 480.648438 C 203.769531 497.566406 219.457031 508.601562 236.535156 508.601562 C 240.003906 508.601562 243.539062 508.148438 247.046875 507.191406 C 256.191406 504.703125 263.726562 499.230469 268.890625 492.117188 L 311.765625 499.097656 C 309.996094 504.960938 309.816406 511.5625 311.609375 518.144531 C 312.582031 521.734375 314.210938 524.796875 316.140625 527.894531 L 199.671875 559.503906 M 151.332031 435.207031 C 151.050781 435.207031 150.765625 435.246094 150.464844 435.324219 C 148.59375 435.832031 147.90625 437.585938 148.386719 439.363281 L 168.785156 514.5 C 169.191406 516 170.300781 517.058594 171.753906 517.058594 C 172.03125 517.058594 172.320312 517.019531 172.617188 516.941406 C 174.488281 516.429688 175.175781 514.679688 174.695312 512.898438 L 154.296875 437.765625 C 153.894531 436.265625 152.78125 435.207031 151.332031 435.207031 M 179.78125 495.121094 C 179.453125 495.121094 179.117188 495.167969 178.785156 495.257812 C 176.917969 495.761719 175.632812 497.675781 176.121094 499.453125 L 179.417969 511.617188 C 179.820312 513.082031 181.296875 514.023438 182.847656 514.023438 C 183.179688 514.023438 183.515625 513.980469 183.84375 513.890625 C 185.714844 513.386719 186.992188 511.472656 186.507812 509.691406 L 183.210938 497.535156 C 182.808594 496.0625 181.332031 495.121094 179.78125 495.121094 M 236.507812 506.125 C 220.863281 506.125 206.46875 496.292969 201.09375 481.078125 L 206.675781 481.984375 C 212.058594 493.621094 223.773438 500.992188 236.417969 500.992188 C 239.265625 500.992188 242.167969 500.617188 245.042969 499.835938 C 251.085938 498.191406 256.277344 494.960938 260.285156 490.710938 L 266.15625 491.667969 C 261.332031 497.847656 254.542969 502.578125 246.398438 504.792969 C 243.09375 505.695312 239.769531 506.125 236.507812 506.125 " fill-opacity="1" fill-rule="nonzero"/><path fill="#8c6d3d" d="M 187.070312 388.984375 C 152.363281 388.984375 114.832031 375.191406 106.484375 344.480469 C 105.347656 340.304688 104.835938 336.132812 104.871094 331.996094 L 133.617188 331.996094 L 137.222656 345.25 L 151.824219 341.28125 C 157.226562 351.851562 166.148438 357.257812 176.234375 357.257812 C 178.886719 357.257812 181.625 356.882812 184.398438 356.125 C 196.371094 352.867188 201.660156 343.957031 203.949219 331.996094 L 220.152344 331.996094 L 211.257812 386.617188 C 203.660156 388.179688 195.449219 388.984375 187.070312 388.984375 M 173.777344 335.902344 C 171.371094 335.902344 168.882812 334.835938 166.917969 331.996094 L 180.503906 331.996094 C 179.355469 333.945312 177.929688 335.085938 176.082031 335.585938 C 175.335938 335.792969 174.558594 335.902344 173.777344 335.902344 " fill-opacity="1" fill-rule="nonzero"/><path fill="#aa8458" d="M 176.234375 357.257812 C 166.148438 357.257812 157.226562 351.851562 151.824219 341.28125 L 137.222656 345.25 L 133.617188 331.996094 L 166.917969 331.996094 C 168.882812 334.835938 171.371094 335.902344 173.777344 335.902344 C 174.558594 335.902344 175.335938 335.792969 176.082031 335.585938 C 177.929688 335.085938 179.355469 333.945312 180.503906 331.996094 L 203.949219 331.996094 C 201.660156 343.957031 196.371094 352.867188 184.398438 356.125 C 181.625 356.882812 178.886719 357.257812 176.234375 357.257812 " fill-opacity="1" fill-rule="nonzero"/><path fill="#8c6d3d" d="M 236.535156 508.601562 C 219.457031 508.601562 203.769531 497.566406 198.449219 480.648438 L 201.09375 481.078125 C 206.46875 496.292969 220.863281 506.125 236.507812 506.125 C 239.769531 506.125 243.09375 505.695312 246.398438 504.792969 C 254.542969 502.578125 261.332031 497.847656 266.15625 491.667969 L 268.890625 492.117188 C 263.726562 499.230469 256.191406 504.703125 247.046875 507.191406 C 243.539062 508.148438 240.003906 508.601562 236.535156 508.601562 M 196.992188 474.273438 C 195.804688 466.011719 197.273438 457.839844 200.828125 450.742188 L 196.992188 474.273438 " fill-opacity="1" fill-rule="nonzero"/><path fill="#8c6d3d" d="M 236.417969 500.992188 C 223.773438 500.992188 212.058594 493.621094 206.675781 481.984375 L 260.285156 490.710938 C 256.277344 494.960938 251.085938 498.191406 245.042969 499.835938 C 242.167969 500.617188 239.265625 500.992188 236.417969 500.992188 " fill-opacity="1" fill-rule="nonzero"/><path fill="#8c6d3d" d="M 171.753906 517.058594 C 170.300781 517.058594 169.191406 516 168.785156 514.5 L 148.386719 439.363281 C 147.90625 437.585938 148.59375 435.832031 150.464844 435.324219 C 150.765625 435.246094 151.050781 435.207031 151.332031 435.207031 C 152.78125 435.207031 153.894531 436.265625 154.296875 437.765625 L 174.695312 512.898438 C 175.175781 514.679688 174.488281 516.429688 172.617188 516.941406 C 172.320312 517.019531 172.03125 517.058594 171.753906 517.058594 " fill-opacity="1" fill-rule="nonzero"/><path fill="#8c6d3d" d="M 182.847656 514.023438 C 181.296875 514.023438 179.820312 513.082031 179.417969 511.617188 L 176.121094 499.453125 C 175.632812 497.675781 176.917969 495.761719 178.785156 495.257812 C 179.117188 495.167969 179.453125 495.121094 179.78125 495.121094 C 181.332031 495.121094 182.808594 496.0625 183.210938 497.535156 L 186.507812 509.691406 C 186.992188 511.472656 185.714844 513.386719 183.84375 513.890625 C 183.515625 513.980469 183.179688 514.023438 182.847656 514.023438 " fill-opacity="1" fill-rule="nonzero"/><path fill="#8c6d3d" d="M 152.871094 601.4375 L 79.785156 332.148438 C 81.234375 332.046875 82.695312 331.996094 84.179688 331.996094 L 100.257812 331.996094 L 153.882812 529.566406 C 155.828125 527.832031 159.09375 526.246094 162.347656 525.363281 C 164.648438 524.742188 166.957031 524.441406 169.25 524.441406 C 182.34375 524.441406 194.535156 534.261719 198.5 548.84375 C 199.472656 552.441406 199.773438 555.859375 199.671875 559.503906 L 316.140625 527.894531 C 314.210938 524.796875 312.582031 521.734375 311.609375 518.144531 C 309.816406 511.5625 309.996094 504.960938 311.765625 499.097656 L 328.976562 501.894531 L 333.292969 504.867188 C 332.984375 505.890625 332.753906 507.042969 332.597656 508.347656 C 332.058594 512.566406 331.382812 514.410156 329.804688 514.816406 C 329.5625 514.878906 329.316406 514.917969 329.070312 514.917969 C 327.875 514.917969 326.621094 514.117188 325.992188 511.722656 C 325.164062 508.53125 325.746094 506.136719 326.046875 504.871094 L 320.132812 505.011719 C 319.746094 506.773438 319.679688 509.546875 320.195312 511.941406 L 316.050781 513.023438 L 317.285156 517.761719 L 321.777344 516.59375 C 323.546875 520.167969 326.496094 521.960938 329.847656 521.960938 C 330.699219 521.960938 331.578125 521.847656 332.472656 521.613281 C 337.253906 520.363281 338.855469 516.367188 339.386719 511.148438 C 339.457031 510.445312 339.542969 509.820312 339.648438 509.25 L 346.886719 514.234375 C 346.761719 515.105469 346.578125 515.914062 346.359375 516.644531 L 350.304688 516.59375 L 376.074219 534.355469 L 377.71875 540.40625 L 152.871094 601.4375 M 155.402344 559.875 C 157.167969 563.449219 160.113281 565.246094 163.464844 565.246094 C 164.324219 565.246094 165.203125 565.128906 166.089844 564.898438 C 170.875 563.652344 172.476562 559.648438 173.007812 554.433594 C 173.378906 550.773438 174.183594 548.988281 176.054688 548.5 C 176.3125 548.433594 176.5625 548.398438 176.808594 548.398438 C 178.386719 548.398438 179.648438 549.765625 180.230469 552 C 180.980469 554.894531 180.625 557.769531 179.984375 559.929688 L 186.128906 559.851562 C 186.722656 557.886719 186.773438 554.238281 186.308594 551.832031 L 191.195312 550.5625 L 189.960938 545.820312 L 184.671875 547.195312 C 182.898438 543.515625 179.53125 541.453125 175.953125 541.453125 C 175.160156 541.453125 174.351562 541.554688 173.550781 541.761719 C 169.0625 542.933594 166.917969 545.796875 166.21875 551.628906 C 165.683594 555.855469 165.003906 557.695312 163.425781 558.105469 C 163.1875 558.167969 162.941406 558.199219 162.695312 558.199219 C 161.496094 558.199219 160.242188 557.40625 159.617188 555.011719 C 158.78125 551.816406 159.371094 549.425781 159.671875 548.160156 L 153.75 548.292969 C 153.371094 550.0625 153.296875 552.832031 153.816406 555.230469 L 149.675781 556.308594 L 150.90625 561.042969 L 155.402344 559.875 " fill-opacity="1" fill-rule="nonzero"/><path fill="#aa8458" d="M 163.464844 565.246094 C 160.113281 565.246094 157.167969 563.449219 155.402344 559.875 L 150.90625 561.042969 L 149.675781 556.308594 L 153.816406 555.230469 C 153.296875 552.832031 153.371094 550.0625 153.75 548.292969 L 159.671875 548.160156 C 159.371094 549.425781 158.78125 551.816406 159.617188 555.011719 C 160.242188 557.40625 161.496094 558.199219 162.695312 558.199219 C 162.941406 558.199219 163.1875 558.167969 163.425781 558.105469 C 165.003906 557.695312 165.683594 555.855469 166.21875 551.628906 C 166.917969 545.796875 169.0625 542.933594 173.550781 541.761719 C 174.351562 541.554688 175.160156 541.453125 175.953125 541.453125 C 179.53125 541.453125 182.898438 543.515625 184.671875 547.195312 L 189.960938 545.820312 L 191.195312 550.5625 L 186.308594 551.832031 C 186.773438 554.238281 186.722656 557.886719 186.128906 559.851562 L 179.984375 559.929688 C 180.625 557.769531 180.980469 554.894531 180.230469 552 C 179.648438 549.765625 178.386719 548.398438 176.808594 548.398438 C 176.5625 548.398438 176.3125 548.433594 176.054688 548.5 C 174.183594 548.988281 173.378906 550.773438 173.007812 554.433594 C 172.476562 559.648438 170.875 563.652344 166.089844 564.898438 C 165.203125 565.128906 164.324219 565.246094 163.464844 565.246094 " fill-opacity="1" fill-rule="nonzero"/><path fill="#aa8458" d="M 329.847656 521.960938 C 326.496094 521.960938 323.546875 520.167969 321.777344 516.59375 L 317.285156 517.761719 L 316.050781 513.023438 L 320.195312 511.941406 C 319.679688 509.546875 319.746094 506.773438 320.132812 505.011719 L 326.046875 504.871094 C 325.746094 506.136719 325.164062 508.53125 325.992188 511.722656 C 326.621094 514.117188 327.875 514.917969 329.070312 514.917969 C 329.316406 514.917969 329.5625 514.878906 329.804688 514.816406 C 331.382812 514.410156 332.058594 512.566406 332.597656 508.347656 C 332.753906 507.042969 332.984375 505.890625 333.292969 504.867188 L 339.648438 509.25 C 339.542969 509.820312 339.457031 510.445312 339.386719 511.148438 C 338.855469 516.367188 337.253906 520.363281 332.472656 521.613281 C 331.578125 521.847656 330.699219 521.960938 329.847656 521.960938 M 346.359375 516.644531 C 346.578125 515.914062 346.761719 515.105469 346.886719 514.234375 L 350.304688 516.59375 L 346.359375 516.644531 " fill-opacity="1" fill-rule="nonzero"/><path fill="#aa8458" d="M 498.296875 618.605469 L 387.800781 542.441406 L 376.074219 534.355469 L 350.304688 516.59375 L 346.886719 514.234375 L 339.648438 509.25 L 333.292969 504.867188 L 328.976562 501.894531 L 361.71875 507.222656 L 498.777344 601.695312 L 683.207031 334.125 C 686.300781 334.957031 689.304688 336.027344 692.1875 337.304688 L 498.296875 618.605469 M 468.554688 546.605469 L 426.785156 517.8125 L 445.988281 520.941406 L 451.664062 486.078125 C 455.175781 487.058594 458.769531 487.53125 462.351562 487.53125 C 475.058594 487.53125 487.550781 481.488281 495.300781 470.230469 C 507.816406 452.054688 503.226562 427.175781 485.046875 414.660156 C 478.71875 410.300781 471.578125 408.015625 464.421875 407.65625 L 476.066406 336.128906 C 485.316406 353.410156 499.199219 369.011719 513.609375 378.929688 C 530.417969 390.503906 552.867188 397.738281 574.023438 397.746094 C 594.945312 397.746094 614.597656 390.664062 626.273438 373.707031 C 634.902344 361.175781 637 346.589844 634.566406 331.996094 L 660.625 331.996094 L 521.6875 533.5625 C 520.425781 531.285156 517.871094 528.710938 515.097656 526.796875 C 510.476562 523.609375 505.175781 522.09375 499.8125 522.09375 C 489.828125 522.09375 479.621094 527.339844 473.066406 536.84375 C 470.949219 539.910156 469.667969 543.132812 468.554688 546.605469 M 462.417969 485.074219 C 458.949219 485.074219 455.460938 484.59375 452.066406 483.621094 L 452.894531 478.511719 C 456.078125 479.507812 459.363281 479.992188 462.625 479.992188 C 473.054688 479.992188 483.308594 475.027344 489.671875 465.789062 C 499.949219 450.867188 496.179688 430.441406 481.257812 420.167969 C 475.769531 416.390625 469.527344 414.507812 463.332031 414.386719 L 464.058594 409.90625 C 470.894531 410.191406 477.726562 412.347656 483.773438 416.511719 C 500.875 428.289062 505.199219 451.695312 493.421875 468.800781 C 486.128906 479.390625 474.375 485.074219 462.417969 485.074219 " fill-opacity="1" fill-rule="nonzero"/><path fill="#8c6d3d" d="M 574.023438 397.746094 C 552.867188 397.738281 530.417969 390.503906 513.609375 378.929688 C 499.199219 369.011719 485.316406 353.410156 476.066406 336.128906 L 476.742188 331.996094 L 510.738281 331.996094 C 511.910156 333.09375 513.191406 334.125 514.578125 335.082031 C 519.230469 338.28125 523.875 339.671875 528.566406 339.671875 C 535.460938 339.671875 542.441406 336.660156 549.609375 331.996094 L 575.660156 331.996094 C 575.804688 334.964844 574.628906 338.394531 572.222656 341.894531 C 567.078125 349.355469 559.78125 354.257812 553.542969 357.0625 L 565.902344 371.03125 C 571.574219 368.488281 579.25 362.527344 584.628906 355.542969 L 597.101562 364.125 L 605.421875 352.039062 L 591.921875 342.742188 C 593.457031 339.191406 594.320312 335.558594 594.558594 331.996094 L 634.566406 331.996094 C 637 346.589844 634.902344 361.175781 626.273438 373.707031 C 614.597656 390.664062 594.945312 397.746094 574.023438 397.746094 " fill-opacity="1" fill-rule="nonzero"/><path fill="#aa8458" d="M 565.902344 371.03125 L 553.542969 357.0625 C 559.78125 354.257812 567.078125 349.355469 572.222656 341.894531 C 574.628906 338.394531 575.804688 334.964844 575.660156 331.996094 L 594.558594 331.996094 C 594.320312 335.558594 593.457031 339.191406 591.921875 342.742188 L 605.421875 352.039062 L 597.101562 364.125 L 584.628906 355.542969 C 579.25 362.527344 571.574219 368.488281 565.902344 371.03125 M 528.566406 339.671875 C 523.875 339.671875 519.230469 338.28125 514.578125 335.082031 C 513.191406 334.125 511.910156 333.09375 510.738281 331.996094 L 549.609375 331.996094 C 542.441406 336.660156 535.460938 339.671875 528.566406 339.671875 " fill-opacity="1" fill-rule="nonzero"/><path fill="#8c6d3d" d="M 462.351562 487.53125 C 458.769531 487.53125 455.175781 487.058594 451.664062 486.078125 L 452.066406 483.621094 C 455.460938 484.59375 458.949219 485.074219 462.417969 485.074219 C 474.375 485.074219 486.128906 479.390625 493.421875 468.800781 C 505.199219 451.695312 500.875 428.289062 483.773438 416.511719 C 477.726562 412.347656 470.894531 410.191406 464.058594 409.90625 L 464.421875 407.65625 C 471.578125 408.015625 478.71875 410.300781 485.046875 414.660156 C 503.226562 427.175781 507.816406 452.054688 495.300781 470.230469 C 487.550781 481.488281 475.058594 487.53125 462.351562 487.53125 " fill-opacity="1" fill-rule="nonzero"/><path fill="#8c6d3d" d="M 462.625 479.992188 C 459.363281 479.992188 456.078125 479.507812 452.894531 478.511719 L 463.332031 414.386719 C 469.527344 414.507812 475.769531 416.390625 481.257812 420.167969 C 496.179688 430.441406 499.949219 450.867188 489.671875 465.789062 C 483.308594 475.027344 473.054688 479.992188 462.625 479.992188 " fill-opacity="1" fill-rule="nonzero"/><path fill="#8c6d3d" d="M 498.777344 601.695312 L 361.71875 507.222656 L 426.785156 517.8125 L 468.554688 546.605469 C 469.667969 543.132812 470.949219 539.910156 473.066406 536.84375 C 479.621094 527.339844 489.828125 522.09375 499.8125 522.09375 C 505.175781 522.09375 510.476562 523.609375 515.097656 526.796875 C 517.871094 528.710938 520.425781 531.285156 521.6875 533.5625 L 660.625 331.996094 L 667.023438 331.996094 C 672.621094 331.996094 678.042969 332.734375 683.207031 334.125 L 498.777344 601.695312 M 501.09375 551.457031 C 501.734375 551.457031 502.308594 551.648438 502.847656 552.027344 C 504.476562 553.167969 504.410156 555.289062 502.875 557.46875 C 501.152344 559.914062 498.726562 561.503906 496.664062 562.410156 L 500.691406 567.050781 C 502.574219 566.230469 505.394531 563.914062 506.925781 562 L 511.058594 564.910156 L 513.878906 560.910156 L 509.414062 557.765625 C 511.445312 553.203125 510.09375 548.382812 506.378906 545.765625 C 504.636719 544.539062 502.949219 543.921875 501.152344 543.921875 C 499.03125 543.921875 496.761719 544.785156 494.105469 546.535156 C 491.574219 548.183594 489.914062 549 488.679688 549 C 488.175781 549 487.746094 548.863281 487.359375 548.589844 C 486.191406 547.769531 485.539062 546.121094 487.257812 543.683594 C 489.164062 540.984375 491.367188 539.882812 492.527344 539.300781 L 488.601562 534.867188 C 487 535.710938 484.839844 537.453125 483.347656 539.394531 L 479.847656 536.925781 L 477.027344 540.933594 L 480.824219 543.609375 C 478.832031 548.191406 480.179688 552.390625 483.894531 555.015625 C 485.445312 556.105469 487 556.578125 488.582031 556.578125 C 491.109375 556.578125 493.683594 555.355469 496.355469 553.53125 C 498.351562 552.160156 499.847656 551.457031 501.09375 551.457031 " fill-opacity="1" fill-rule="nonzero"/><path fill="#aa8458" d="M 500.691406 567.050781 L 496.664062 562.410156 C 498.726562 561.503906 501.152344 559.914062 502.875 557.46875 C 504.410156 555.289062 504.476562 553.167969 502.847656 552.027344 C 502.308594 551.648438 501.734375 551.457031 501.09375 551.457031 C 499.847656 551.457031 498.351562 552.160156 496.355469 553.53125 C 493.683594 555.355469 491.109375 556.578125 488.582031 556.578125 C 487 556.578125 485.445312 556.105469 483.894531 555.015625 C 480.179688 552.390625 478.832031 548.191406 480.824219 543.609375 L 477.027344 540.933594 L 479.847656 536.925781 L 483.347656 539.394531 C 484.839844 537.453125 487 535.710938 488.601562 534.867188 L 492.527344 539.300781 C 491.367188 539.882812 489.164062 540.984375 487.257812 543.683594 C 485.539062 546.121094 486.191406 547.769531 487.359375 548.589844 C 487.746094 548.863281 488.175781 549 488.679688 549 C 489.914062 549 491.574219 548.183594 494.105469 546.535156 C 496.761719 544.785156 499.03125 543.921875 501.152344 543.921875 C 502.949219 543.921875 504.636719 544.539062 506.378906 545.765625 C 510.09375 548.382812 511.445312 553.203125 509.414062 557.765625 L 513.878906 560.910156 L 511.058594 564.910156 L 506.925781 562 C 505.394531 563.914062 502.574219 566.230469 500.691406 567.050781 " fill-opacity="1" fill-rule="nonzero"/><path fill="#aa8458" d="M 445.988281 520.941406 L 426.785156 517.8125 L 361.71875 507.222656 L 328.976562 501.894531 L 311.765625 499.097656 L 268.890625 492.117188 L 266.15625 491.667969 L 260.285156 490.710938 L 206.675781 481.984375 L 201.09375 481.078125 L 198.449219 480.648438 L 196.019531 480.257812 L 196.992188 474.273438 L 200.828125 450.742188 L 211.257812 386.617188 L 220.152344 331.996094 L 231.375 331.996094 L 209.234375 468.027344 L 439.1875 505.453125 L 465.011719 346.8125 C 467.601562 342.117188 469.691406 337.148438 471.234375 331.996094 L 476.742188 331.996094 L 476.066406 336.128906 L 464.421875 407.65625 L 464.058594 409.90625 L 463.332031 414.386719 L 452.894531 478.511719 L 452.066406 483.621094 L 451.664062 486.078125 L 445.988281 520.941406 M 388.296875 468.59375 L 269.183594 449.203125 C 270.785156 445.925781 271.925781 442.691406 272.519531 439.011719 C 275.375 421.492188 265.167969 405.261719 249.320312 402.683594 C 247.917969 402.453125 246.46875 402.339844 245.070312 402.339844 C 243.144531 402.339844 241.320312 402.558594 239.882812 403.007812 L 251.433594 331.996094 L 270 331.996094 L 259.671875 395.457031 C 259.375 397.273438 260.246094 398.949219 262.160156 399.257812 C 262.347656 399.289062 262.527344 399.300781 262.707031 399.300781 C 264.324219 399.300781 265.449219 398.082031 265.71875 396.4375 L 276.207031 331.996094 L 327.300781 331.996094 C 327.660156 333.195312 328.050781 334.398438 328.476562 335.589844 C 329.351562 338.058594 330.339844 340.449219 331.433594 342.753906 C 316.058594 346.28125 303.585938 358.789062 300.90625 375.316406 C 297.375 397.105469 312.167969 417.632812 333.953125 421.164062 C 336.117188 421.515625 338.277344 421.683594 340.398438 421.683594 C 359.652344 421.691406 376.613281 407.742188 379.796875 388.117188 C 380.066406 386.460938 380.226562 384.8125 380.289062 383.171875 C 386.429688 384.78125 392.804688 385.621094 399.261719 385.621094 C 407.597656 385.621094 416.066406 384.230469 424.359375 381.285156 C 430.230469 379.203125 435.675781 376.472656 440.652344 373.191406 L 430.742188 434.070312 C 428.628906 432.546875 425.214844 431.316406 421.890625 430.773438 C 420.457031 430.542969 419.039062 430.433594 417.625 430.433594 C 403.4375 430.433594 390.792969 441.898438 388.203125 457.839844 C 387.605469 461.519531 387.824219 464.976562 388.296875 468.59375 M 276.132812 382.019531 C 274.433594 382.019531 272.84375 383.160156 272.574219 384.789062 L 270.546875 397.226562 C 270.257812 399.050781 271.722656 400.816406 273.636719 401.125 C 273.839844 401.160156 274.042969 401.175781 274.242188 401.175781 C 275.945312 401.175781 277.539062 400.035156 277.800781 398.40625 L 279.828125 385.96875 C 280.125 384.148438 278.652344 382.382812 276.738281 382.066406 C 276.539062 382.035156 276.335938 382.019531 276.132812 382.019531 M 340.414062 419.210938 C 338.414062 419.210938 336.386719 419.046875 334.347656 418.71875 C 313.851562 415.394531 299.9375 396.082031 303.261719 375.585938 C 305.816406 359.859375 317.777344 348.003906 332.460938 344.84375 C 333.179688 346.242188 333.933594 347.613281 334.730469 348.945312 C 321.371094 351.300781 310.34375 361.855469 308.046875 376.007812 C 305.144531 393.890625 317.289062 410.734375 335.171875 413.640625 C 336.953125 413.925781 338.71875 414.066406 340.464844 414.066406 C 356.273438 414.070312 370.199219 402.621094 372.804688 386.511719 C 373.109375 384.644531 373.25 382.785156 373.238281 380.949219 C 374.789062 381.523438 376.367188 382.050781 377.960938 382.523438 C 377.917969 384.210938 377.757812 385.914062 377.480469 387.625 C 374.484375 406.085938 358.527344 419.210938 340.414062 419.210938 " fill-opacity="1" fill-rule="nonzero"/><path fill="#8c6d3d" d="M 340.398438 421.683594 C 338.277344 421.683594 336.117188 421.515625 333.953125 421.164062 C 312.167969 417.632812 297.375 397.105469 300.90625 375.316406 C 303.585938 358.789062 316.058594 346.28125 331.433594 342.753906 C 331.769531 343.460938 332.109375 344.152344 332.460938 344.84375 C 317.777344 348.003906 305.816406 359.859375 303.261719 375.585938 C 299.9375 396.082031 313.851562 415.394531 334.347656 418.71875 C 336.386719 419.046875 338.414062 419.210938 340.414062 419.210938 C 358.527344 419.210938 374.484375 406.085938 377.480469 387.625 C 377.757812 385.914062 377.917969 384.210938 377.960938 382.523438 C 378.734375 382.75 379.511719 382.96875 380.289062 383.171875 C 380.226562 384.8125 380.066406 386.460938 379.796875 388.117188 C 376.613281 407.742188 359.652344 421.691406 340.398438 421.683594 " fill-opacity="1" fill-rule="nonzero"/><path fill="#8c6d3d" d="M 340.464844 414.066406 C 338.71875 414.066406 336.953125 413.925781 335.171875 413.640625 C 317.289062 410.734375 305.144531 393.890625 308.046875 376.007812 C 310.34375 361.855469 321.371094 351.300781 334.730469 348.945312 C 343.671875 363.996094 357.429688 375.101562 373.238281 380.949219 C 373.25 382.785156 373.109375 384.644531 372.804688 386.511719 C 370.199219 402.621094 356.273438 414.070312 340.464844 414.066406 " fill-opacity="1" fill-rule="nonzero"/><path fill="#8c6d3d" d="M 262.707031 399.300781 C 262.527344 399.300781 262.347656 399.289062 262.160156 399.257812 C 260.246094 398.949219 259.375 397.273438 259.671875 395.457031 L 270 331.996094 L 276.207031 331.996094 L 265.71875 396.4375 C 265.449219 398.082031 264.324219 399.300781 262.707031 399.300781 " fill-opacity="1" fill-rule="nonzero"/><path fill="#8c6d3d" d="M 274.242188 401.175781 C 274.042969 401.175781 273.839844 401.160156 273.636719 401.125 C 271.722656 400.816406 270.257812 399.050781 270.546875 397.226562 L 272.574219 384.789062 C 272.84375 383.160156 274.433594 382.019531 276.132812 382.019531 C 276.335938 382.019531 276.539062 382.035156 276.738281 382.066406 C 278.652344 382.382812 280.125 384.148438 279.828125 385.96875 L 277.800781 398.40625 C 277.539062 400.035156 275.945312 401.175781 274.242188 401.175781 " fill-opacity="1" fill-rule="nonzero"/><path fill="#8c6d3d" d="M 439.1875 505.453125 L 209.234375 468.027344 L 231.375 331.996094 L 251.433594 331.996094 L 239.882812 403.007812 C 241.320312 402.558594 243.144531 402.339844 245.070312 402.339844 C 246.46875 402.339844 247.917969 402.453125 249.320312 402.683594 C 265.167969 405.261719 275.375 421.492188 272.519531 439.011719 C 271.925781 442.691406 270.785156 445.925781 269.183594 449.203125 L 388.296875 468.59375 C 387.824219 464.976562 387.605469 461.519531 388.203125 457.839844 C 390.792969 441.898438 403.4375 430.433594 417.625 430.433594 C 419.039062 430.433594 420.457031 430.542969 421.890625 430.773438 C 425.214844 431.316406 428.628906 432.546875 430.742188 434.070312 L 440.652344 373.191406 C 450.957031 366.402344 459.234375 357.277344 465.011719 346.8125 L 439.1875 505.453125 M 421.050781 458.769531 C 421.238281 458.769531 421.425781 458.785156 421.617188 458.820312 C 423.578125 459.15625 424.421875 461.105469 423.96875 463.730469 C 423.457031 466.671875 421.949219 469.148438 420.46875 470.847656 L 426.09375 473.320312 C 427.445312 471.777344 429.003906 468.476562 429.570312 466.089844 L 434.550781 466.953125 L 435.390625 462.128906 L 430 461.191406 C 429.890625 456.207031 426.609375 452.421875 422.125 451.648438 C 421.421875 451.527344 420.753906 451.464844 420.113281 451.464844 C 416.589844 451.464844 413.949219 453.351562 411.363281 457.601562 C 409.316406 460.925781 407.988281 462.375 406.539062 462.375 C 406.410156 462.375 406.277344 462.363281 406.148438 462.339844 C 404.738281 462.09375 403.445312 460.890625 403.957031 457.945312 C 404.519531 454.695312 406.039062 452.753906 406.839844 451.730469 L 401.394531 449.40625 C 400.316406 450.855469 399.105469 453.347656 398.585938 455.742188 L 394.367188 455.015625 L 393.53125 459.839844 L 398.105469 460.632812 C 398.273438 465.632812 401.285156 468.851562 405.761719 469.628906 C 406.320312 469.722656 406.851562 469.769531 407.367188 469.769531 C 411.339844 469.769531 414.042969 466.96875 416.390625 462.957031 C 418.050781 460.101562 419.414062 458.769531 421.050781 458.769531 M 251.667969 429.367188 C 251.855469 429.367188 252.039062 429.386719 252.234375 429.417969 C 254.1875 429.761719 255.039062 431.703125 254.585938 434.328125 C 254.078125 437.273438 252.566406 439.746094 251.082031 441.445312 L 256.710938 443.921875 C 258.0625 442.375 259.617188 439.078125 260.1875 436.691406 L 265.167969 437.550781 L 266.003906 432.726562 L 260.621094 431.792969 C 260.507812 426.804688 257.226562 423.027344 252.746094 422.25 C 252.039062 422.125 251.367188 422.066406 250.730469 422.066406 C 247.203125 422.066406 244.5625 423.949219 241.980469 428.199219 C 239.933594 431.523438 238.601562 432.972656 237.152344 432.972656 C 237.023438 432.972656 236.894531 432.960938 236.765625 432.941406 C 235.355469 432.699219 234.0625 431.488281 234.570312 428.546875 C 235.136719 425.292969 236.660156 423.355469 237.453125 422.332031 L 232.011719 420.003906 C 230.933594 421.453125 229.722656 423.949219 229.203125 426.347656 L 224.984375 425.613281 L 224.148438 430.4375 L 228.722656 431.230469 C 228.890625 436.230469 231.902344 439.449219 236.378906 440.226562 C 236.9375 440.320312 237.46875 440.367188 237.984375 440.367188 C 241.957031 440.367188 244.664062 437.574219 247.007812 433.554688 C 248.667969 430.699219 250.023438 429.367188 251.667969 429.367188 " fill-opacity="1" fill-rule="nonzero"/><path fill="#aa8458" d="M 256.710938 443.921875 L 251.082031 441.445312 C 252.566406 439.746094 254.078125 437.273438 254.585938 434.328125 C 255.039062 431.703125 254.1875 429.761719 252.234375 429.417969 C 252.039062 429.386719 251.855469 429.367188 251.667969 429.367188 C 250.023438 429.367188 248.667969 430.699219 247.007812 433.554688 C 244.664062 437.574219 241.957031 440.367188 237.984375 440.367188 C 237.46875 440.367188 236.9375 440.320312 236.378906 440.226562 C 231.902344 439.449219 228.890625 436.230469 228.722656 431.230469 L 224.148438 430.4375 L 224.984375 425.613281 L 229.203125 426.347656 C 229.722656 423.949219 230.933594 421.453125 232.011719 420.003906 L 237.453125 422.332031 C 236.660156 423.355469 235.136719 425.292969 234.570312 428.546875 C 234.0625 431.488281 235.355469 432.699219 236.765625 432.941406 C 236.894531 432.960938 237.023438 432.972656 237.152344 432.972656 C 238.601562 432.972656 239.933594 431.523438 241.980469 428.199219 C 244.5625 423.949219 247.203125 422.066406 250.730469 422.066406 C 251.367188 422.066406 252.039062 422.125 252.746094 422.25 C 257.226562 423.027344 260.507812 426.804688 260.621094 431.792969 L 266.003906 432.726562 L 265.167969 437.550781 L 260.1875 436.691406 C 259.617188 439.078125 258.0625 442.375 256.710938 443.921875 " fill-opacity="1" fill-rule="nonzero"/><path fill="#aa8458" d="M 426.09375 473.320312 L 420.46875 470.847656 C 421.949219 469.148438 423.457031 466.671875 423.96875 463.730469 C 424.421875 461.105469 423.578125 459.15625 421.617188 458.820312 C 421.425781 458.785156 421.238281 458.769531 421.050781 458.769531 C 419.414062 458.769531 418.050781 460.101562 416.390625 462.957031 C 414.042969 466.96875 411.339844 469.769531 407.367188 469.769531 C 406.851562 469.769531 406.320312 469.722656 405.761719 469.628906 C 401.285156 468.851562 398.273438 465.632812 398.105469 460.632812 L 393.53125 459.839844 L 394.367188 455.015625 L 398.585938 455.742188 C 399.105469 453.347656 400.316406 450.855469 401.394531 449.40625 L 406.839844 451.730469 C 406.039062 452.753906 404.519531 454.695312 403.957031 457.945312 C 403.445312 460.890625 404.738281 462.09375 406.148438 462.339844 C 406.277344 462.363281 406.410156 462.375 406.539062 462.375 C 407.988281 462.375 409.316406 460.925781 411.363281 457.601562 C 413.949219 453.351562 416.589844 451.464844 420.113281 451.464844 C 420.753906 451.464844 421.421875 451.527344 422.125 451.648438 C 426.609375 452.421875 429.890625 456.207031 430 461.191406 L 435.390625 462.128906 L 434.550781 466.953125 L 429.570312 466.089844 C 429.003906 468.476562 427.445312 471.777344 426.09375 473.320312 " fill-opacity="1" fill-rule="nonzero"/><path fill="#b37628" d="M 399.261719 379.699219 C 370.789062 379.699219 344.117188 361.984375 334.058594 333.613281 C 333.867188 333.078125 333.683594 332.535156 333.503906 331.996094 L 339.660156 331.996094 C 348.867188 357.789062 373.160156 373.890625 399.082031 373.890625 C 406.082031 373.890625 413.195312 372.714844 420.167969 370.246094 C 438.765625 363.652344 452.339844 349.230469 458.507812 331.996094 L 465.027344 331.996094 C 458.582031 351.671875 443.40625 368.25 422.382812 375.703125 C 414.746094 378.414062 406.9375 379.699219 399.261719 379.699219 M 399.082031 368.914062 C 375.765625 368.914062 353.886719 354.777344 344.964844 331.996094 L 382.140625 331.996094 L 382.414062 343.828125 C 383.261719 343.90625 384.195312 343.945312 385.203125 343.945312 C 390.113281 343.945312 396.710938 343.035156 402.683594 341.183594 L 405.945312 350.378906 L 417.773438 346.179688 L 414.234375 336.222656 C 416.582031 334.96875 418.671875 333.546875 420.488281 331.996094 L 453.195312 331.996094 C 447.25 347.132812 435.035156 359.695312 418.503906 365.558594 C 412.085938 367.835938 405.527344 368.914062 399.082031 368.914062 " fill-opacity="1" fill-rule="nonzero"/><path fill="#b88232" d="M 405.945312 350.378906 L 402.683594 341.183594 C 396.710938 343.035156 390.113281 343.945312 385.203125 343.945312 C 384.195312 343.945312 383.261719 343.90625 382.414062 343.828125 L 382.140625 331.996094 L 420.488281 331.996094 C 418.671875 333.546875 416.582031 334.96875 414.234375 336.222656 L 417.773438 346.179688 L 405.945312 350.378906 " fill-opacity="1" fill-rule="nonzero"/><path fill="#b88232" d="M 399.082031 373.890625 C 373.160156 373.890625 348.867188 357.789062 339.660156 331.996094 L 344.964844 331.996094 C 353.886719 354.777344 375.765625 368.914062 399.082031 368.914062 C 405.527344 368.914062 412.085938 367.835938 418.503906 365.558594 C 435.035156 359.695312 447.25 347.132812 453.195312 331.996094 L 458.507812 331.996094 C 452.339844 349.230469 438.765625 363.652344 420.167969 370.246094 C 413.195312 372.714844 406.082031 373.890625 399.082031 373.890625 " fill-opacity="1" fill-rule="nonzero"/><path fill="#b88232" d="M 399.261719 385.621094 C 392.804688 385.621094 386.429688 384.78125 380.289062 383.171875 C 379.511719 382.96875 378.734375 382.75 377.960938 382.523438 C 376.367188 382.050781 374.789062 381.523438 373.238281 380.949219 C 357.429688 375.101562 343.671875 363.996094 334.730469 348.945312 C 333.933594 347.613281 333.179688 346.242188 332.460938 344.84375 C 332.109375 344.152344 331.769531 343.460938 331.433594 342.753906 C 330.339844 340.449219 329.351562 338.058594 328.476562 335.589844 C 328.050781 334.398438 327.660156 333.195312 327.300781 331.996094 L 333.503906 331.996094 C 333.683594 332.535156 333.867188 333.078125 334.058594 333.613281 C 344.117188 361.984375 370.789062 379.699219 399.261719 379.699219 C 406.9375 379.699219 414.746094 378.414062 422.382812 375.703125 C 443.40625 368.25 458.582031 351.671875 465.027344 331.996094 L 471.234375 331.996094 C 469.691406 337.148438 467.601562 342.117188 465.011719 346.8125 C 459.234375 357.277344 450.957031 366.402344 440.652344 373.191406 C 435.675781 376.472656 430.230469 379.203125 424.359375 381.285156 C 416.066406 384.230469 407.597656 385.621094 399.261719 385.621094 " fill-opacity="1" fill-rule="nonzero"/><g clip-path="url(#959f0b681c)"><path fill="#bd6933" d="M 645.53125 331.996094 L 62.679688 331.996094 C 28.386719 331.996094 0.582031 359.796875 0.582031 394.097656 L 0.582031 837.011719 C 0.582031 871.308594 28.386719 899.113281 62.679688 899.113281 L 645.53125 899.113281 C 679.824219 899.113281 707.628906 871.308594 707.628906 837.011719 L 707.628906 394.097656 C 707.628906 359.796875 679.824219 331.996094 645.53125 331.996094 " fill-opacity="1" fill-rule="nonzero"/></g><path fill="#ededed" d="M 73.957031 367.582031 L 41.875 367.582031 L 41.875 365.054688 L 73.957031 365.054688 Z M 123.542969 367.582031 L 91.460938 367.582031 L 91.460938 365.054688 L 123.542969 365.054688 Z M 173.125 367.582031 L 141.042969 367.582031 L 141.042969 365.054688 L 173.125 365.054688 Z M 222.710938 367.582031 L 190.628906 367.582031 L 190.628906 365.054688 L 222.710938 365.054688 Z M 272.292969 367.582031 L 240.207031 367.582031 L 240.207031 365.054688 L 272.292969 365.054688 Z M 321.875 367.582031 L 289.792969 367.582031 L 289.792969 365.054688 L 321.875 365.054688 Z M 371.457031 367.582031 L 339.375 367.582031 L 339.375 365.054688 L 371.457031 365.054688 Z M 421.039062 367.582031 L 388.953125 367.582031 L 388.953125 365.054688 L 421.039062 365.054688 Z M 470.621094 367.582031 L 438.539062 367.582031 L 438.539062 365.054688 L 470.621094 365.054688 Z M 520.203125 367.582031 L 488.121094 367.582031 L 488.121094 365.054688 L 520.203125 365.054688 Z M 569.789062 367.582031 L 537.699219 367.582031 L 537.699219 365.054688 L 569.789062 365.054688 Z M 619.304688 367.628906 C 618.539062 367.59375 617.769531 367.582031 617.003906 367.582031 L 587.285156 367.582031 L 587.285156 365.054688 L 617.003906 365.054688 C 617.816406 365.054688 618.625 365.070312 619.425781 365.097656 Z M 660.066406 387.257812 C 654.023438 379.710938 645.664062 373.976562 635.886719 370.660156 L 636.941406 368.304688 C 647.25 371.804688 656.070312 377.855469 662.445312 385.808594 Z M 672.402344 427.996094 L 669.503906 427.996094 L 669.503906 413.34375 C 669.503906 409.007812 668.796875 404.707031 667.40625 400.570312 L 670.191406 399.859375 C 671.660156 404.226562 672.402344 408.765625 672.402344 413.34375 Z M 672.402344 471.21875 L 669.503906 471.21875 L 669.503906 443.253906 L 672.402344 443.253906 Z M 672.402344 514.4375 L 669.503906 514.4375 L 669.503906 486.476562 L 672.402344 486.476562 Z M 672.402344 557.65625 L 669.503906 557.65625 L 669.503906 529.691406 L 672.402344 529.691406 Z M 672.402344 600.878906 L 669.503906 600.878906 L 669.503906 572.910156 L 672.402344 572.910156 Z M 672.402344 644.097656 L 669.503906 644.097656 L 669.503906 616.128906 L 672.402344 616.128906 Z M 672.402344 687.316406 L 669.503906 687.316406 L 669.503906 659.351562 L 672.402344 659.351562 Z M 672.402344 730.539062 L 669.503906 730.539062 L 669.503906 702.570312 L 672.402344 702.570312 Z M 672.402344 773.757812 L 669.503906 773.757812 L 669.503906 745.789062 L 672.402344 745.789062 Z M 672.402344 816.980469 L 669.503906 816.980469 L 669.503906 789.011719 L 672.402344 789.011719 Z M 651.289062 855.625 L 649.488281 853.644531 C 657.773438 847.929688 663.832031 840.308594 667.03125 831.613281 L 669.792969 832.382812 C 666.425781 841.5625 660.027344 849.597656 651.289062 855.625 Z M 90.144531 866.054688 L 58.0625 866.054688 L 58.0625 863.523438 L 90.144531 863.523438 Z M 139.722656 866.054688 L 107.640625 866.054688 L 107.640625 863.523438 L 139.722656 863.523438 Z M 189.308594 866.054688 L 157.226562 866.054688 L 157.226562 863.523438 L 189.308594 863.523438 Z M 238.890625 866.054688 L 206.808594 866.054688 L 206.808594 863.523438 L 238.890625 863.523438 Z M 288.476562 866.054688 L 256.386719 866.054688 L 256.386719 863.523438 L 288.476562 863.523438 Z M 338.054688 866.054688 L 305.972656 866.054688 L 305.972656 863.523438 L 338.054688 863.523438 Z M 387.636719 866.054688 L 355.554688 866.054688 L 355.554688 863.523438 L 387.636719 863.523438 Z M 437.222656 866.054688 L 405.140625 866.054688 L 405.140625 863.523438 L 437.222656 863.523438 Z M 486.804688 866.054688 L 454.71875 866.054688 L 454.71875 863.523438 L 486.804688 863.523438 Z M 536.382812 866.054688 L 504.300781 866.054688 L 504.300781 863.523438 L 536.382812 863.523438 Z M 585.96875 866.054688 L 553.886719 866.054688 L 553.886719 863.523438 L 585.96875 863.523438 Z M 617.003906 866.054688 L 603.464844 866.054688 L 603.464844 863.523438 L 617.003906 863.523438 C 623.066406 863.523438 629.015625 862.621094 634.683594 860.835938 L 635.667969 863.214844 C 629.679688 865.101562 623.402344 866.054688 617.003906 866.054688 " fill-opacity="1" fill-rule="nonzero"/><path fill="#ad5d31" d="M 754.914062 548.007812 L 595.644531 548.007812 C 558.375 548.007812 527.882812 578.5 527.882812 615.773438 L 527.882812 615.820312 C 527.882812 653.03125 558.332031 683.480469 595.535156 683.480469 L 754.914062 683.480469 L 754.914062 548.007812 " fill-opacity="1" fill-rule="nonzero"/><path fill="#ededed" d="M 693.042969 677.546875 L 673.640625 677.546875 L 673.640625 675.78125 L 693.042969 675.78125 L 693.042969 677.546875 " fill-opacity="1" fill-rule="nonzero"/><path fill="#ededed" d="M 721.703125 677.546875 L 702.296875 677.546875 L 702.296875 675.78125 L 721.703125 675.78125 L 721.703125 677.546875 " fill-opacity="1" fill-rule="nonzero"/><path fill="#ededed" d="M 750.359375 677.546875 L 730.953125 677.546875 L 730.953125 675.78125 L 750.359375 675.78125 L 750.359375 677.546875 " fill-opacity="1" fill-rule="nonzero"/><path fill="#ededed" d="M 663.054688 677.546875 L 643.65625 677.546875 L 643.65625 675.78125 L 663.054688 675.78125 L 663.054688 677.546875 " fill-opacity="1" fill-rule="nonzero"/><path fill="#ededed" d="M 633.074219 677.546875 L 613.671875 677.546875 L 613.671875 675.78125 L 633.074219 675.78125 L 633.074219 677.546875 " fill-opacity="1" fill-rule="nonzero"/><path fill="#ededed" d="M 603.089844 677.546875 L 597.722656 677.546875 C 592.957031 677.546875 588.21875 676.992188 583.613281 675.90625 L 584.019531 674.1875 C 588.488281 675.246094 593.097656 675.78125 597.722656 675.78125 L 603.089844 675.78125 L 603.089844 677.546875 " fill-opacity="1" fill-rule="nonzero"/><path fill="#ededed" d="M 573.4375 672.53125 C 567.410156 669.921875 561.851562 666.378906 556.910156 661.996094 L 558.082031 660.683594 C 562.878906 664.9375 568.28125 668.382812 574.136719 670.914062 L 573.4375 672.53125 " fill-opacity="1" fill-rule="nonzero"/><path fill="#ededed" d="M 549.53125 654.222656 C 545.417969 649.058594 542.171875 643.320312 539.898438 637.164062 L 541.550781 636.554688 C 543.761719 642.53125 546.914062 648.105469 550.914062 653.121094 L 549.53125 654.222656 " fill-opacity="1" fill-rule="nonzero"/><path fill="#ededed" d="M 537.078125 626.820312 C 536.429688 623.25 536.105469 619.582031 536.105469 615.933594 C 536.105469 613.023438 536.3125 610.097656 536.71875 607.230469 L 538.464844 607.480469 C 538.070312 610.265625 537.867188 613.105469 537.867188 615.933594 C 537.867188 619.480469 538.1875 623.035156 538.8125 626.507812 L 537.078125 626.820312 " fill-opacity="1" fill-rule="nonzero"/><path fill="#ededed" d="M 540.84375 597.347656 L 539.164062 596.792969 C 541.21875 590.558594 544.253906 584.703125 548.1875 579.398438 L 549.605469 580.449219 C 545.789062 585.605469 542.835938 591.289062 540.84375 597.347656 " fill-opacity="1" fill-rule="nonzero"/><path fill="#ededed" d="M 556.5 572.640625 L 555.285156 571.359375 C 560.066406 566.808594 565.496094 563.070312 571.421875 560.25 L 572.175781 561.84375 C 566.417969 564.582031 561.144531 568.214844 556.5 572.640625 " fill-opacity="1" fill-rule="nonzero"/><path fill="#ededed" d="M 581.9375 558.207031 L 581.46875 556.511719 C 586.746094 555.054688 592.207031 554.316406 597.714844 554.316406 L 600.90625 554.316406 L 600.90625 556.085938 L 597.714844 556.085938 C 592.367188 556.085938 587.058594 556.800781 581.9375 558.207031 " fill-opacity="1" fill-rule="nonzero"/><path fill="#ededed" d="M 690.855469 556.085938 L 671.457031 556.085938 L 671.457031 554.316406 L 690.855469 554.316406 L 690.855469 556.085938 " fill-opacity="1" fill-rule="nonzero"/><path fill="#ededed" d="M 719.511719 556.085938 L 700.113281 556.085938 L 700.113281 554.316406 L 719.511719 554.316406 L 719.511719 556.085938 " fill-opacity="1" fill-rule="nonzero"/><path fill="#ededed" d="M 748.167969 556.085938 L 728.769531 556.085938 L 728.769531 554.316406 L 748.167969 554.316406 L 748.167969 556.085938 " fill-opacity="1" fill-rule="nonzero"/><path fill="#ededed" d="M 660.875 556.085938 L 641.472656 556.085938 L 641.472656 554.316406 L 660.875 554.316406 L 660.875 556.085938 " fill-opacity="1" fill-rule="nonzero"/><path fill="#ededed" d="M 630.890625 556.085938 L 611.484375 556.085938 L 611.484375 554.316406 L 630.890625 554.316406 L 630.890625 556.085938 " fill-opacity="1" fill-rule="nonzero"/><path fill="#bcbcbc" d="M 647.972656 615.933594 C 647.972656 637 630.890625 654.082031 609.824219 654.082031 C 588.75 654.082031 571.667969 637 571.667969 615.933594 C 571.667969 594.859375 588.75 577.777344 609.824219 577.777344 C 630.890625 577.777344 647.972656 594.859375 647.972656 615.933594 " fill-opacity="1" fill-rule="nonzero"/><path fill="#c6c6c6" d="M 636.917969 615.933594 C 636.917969 630.898438 624.789062 643.035156 609.824219 643.035156 C 594.855469 643.035156 582.722656 630.898438 582.722656 615.933594 C 582.722656 600.96875 594.855469 588.832031 609.824219 588.832031 C 624.789062 588.832031 636.917969 600.96875 636.917969 615.933594 " fill-opacity="1" fill-rule="nonzero"/></svg>